<?xml version="1.0" encoding="utf-8"?>
<!-- Generator: Adobe Illustrator 22.0.0, SVG Export Plug-In . SVG Version: 6.00 Build 0)  -->
<svg version="1.1" id="Layer_1" xmlns="http://www.w3.org/2000/svg" xmlns:xlink="http://www.w3.org/1999/xlink" x="0px" y="0px"
	 viewBox="0 0 5.4 18.1" style="enable-background:new 0 0 5.4 18.1;" xml:space="preserve">
<style type="text/css">
	.st0{fill:#53AFEE;}
</style>
<path class="st0" d="M0.9,9.4c0,0.9,0.8,1.7,1.7,1.7c0.9,0,1.7-0.8,1.7-1.7S3.6,7.7,2.6,7.7C1.7,7.7,0.9,8.5,0.9,9.4z"/>
<path class="st0" d="M0.9,5c0,0.9,0.8,1.7,1.7,1.7c0.9,0,1.7-0.8,1.7-1.7c0-0.9-0.8-1.7-1.7-1.7C1.7,3.3,0.9,4.1,0.9,5z"/>
<path class="st0" d="M0.9,13.7c0,0.9,0.8,1.7,1.7,1.7c0.9,0,1.7-0.8,1.7-1.7c0-0.9-0.8-1.7-1.7-1.7C1.7,12,0.9,12.7,0.9,13.7z"/>
</svg>
