<svg width="22" height="22" viewBox="0 0 22 22" fill="none" xmlns="http://www.w3.org/2000/svg">
<path d="M10.9998 7.33366C12.0082 7.33366 12.8332 6.50866 12.8332 5.50033C12.8332 4.49199 12.0082 3.66699 10.9998 3.66699C9.9915 3.66699 9.1665 4.49199 9.1665 5.50033C9.1665 6.50866 9.9915 7.33366 10.9998 7.33366ZM10.9998 9.16699C9.9915 9.16699 9.1665 9.99199 9.1665 11.0003C9.1665 12.0087 9.9915 12.8337 10.9998 12.8337C12.0082 12.8337 12.8332 12.0087 12.8332 11.0003C12.8332 9.99199 12.0082 9.16699 10.9998 9.16699ZM10.9998 14.667C9.9915 14.667 9.1665 15.492 9.1665 16.5003C9.1665 17.5087 9.9915 18.3337 10.9998 18.3337C12.0082 18.3337 12.8332 17.5087 12.8332 16.5003C12.8332 15.492 12.0082 14.667 10.9998 14.667Z" fill="#B6B4BA"/>
</svg>
