<svg width="22" height="13" viewBox="0 0 22 13" fill="none" xmlns="http://www.w3.org/2000/svg">
<g clip-path="url(#clip0)">
<path d="M11.0287 0C6.83551 0 2.98695 2.2807 0.172324 5.98684C-0.0574412 6.27193 -0.0574412 6.72807 0.172324 7.01316C2.98695 10.7193 6.77807 13 11.0287 13C15.2794 13 19.0705 10.7193 21.8851 7.01316C22.1149 6.72807 22.1149 6.27193 21.8851 5.98684C19.0131 2.2807 15.2219 0 11.0287 0ZM11.3159 11.1184C8.50131 11.2895 6.20366 9.00877 6.37598 6.21491C6.5483 3.93421 8.38642 2.05263 10.6841 1.9386C13.4987 1.76754 15.7963 4.04825 15.624 6.84211C15.5091 9.12281 13.6136 10.9474 11.3159 11.1184ZM11.1436 9.00877C9.65013 9.12281 8.38642 7.86842 8.50131 6.38597C8.61619 5.13158 9.59269 4.10526 10.8564 4.04825C12.3499 3.93421 13.6136 5.1886 13.4987 6.67105C13.4413 7.92544 12.4073 8.89474 11.1436 9.00877Z" fill="#464255"/>
</g>
<defs>
<clipPath id="clip0">
<rect width="22" height="13" fill="white"/>
</clipPath>
</defs>
</svg>
