<svg width="445" height="492" viewBox="0 0 445 492" fill="none" xmlns="http://www.w3.org/2000/svg">
<g clip-path="url(#clip0)">
<path d="M168.667 220.736C163.333 225.722 161.333 233.701 166.333 239.685C171 245.336 180 246.666 186 242.012C200.333 231.041 185.333 211.095 170 215.084C167.333 215.749 168 219.739 170.667 220.071C175 220.403 180 220.403 183.667 223.728C187.667 227.052 187.667 232.703 184.333 236.693C176 246.998 161.667 231.706 170.333 222.73C171.667 221.068 170 219.406 168.667 220.736Z" fill="#8AA9FC"/>
<path d="M355 275.587C363.667 271.598 372.334 266.944 380 261.292C382.667 259.298 380 255.309 377 256.971C368.667 261.292 360.667 266.944 353.334 272.595C352 273.592 353.334 276.584 355 275.587Z" fill="#EDC483"/>
<path d="M67.9995 219.738L67.6662 219.405C65.6662 217.411 61.9995 217.078 59.9995 219.405C57.9995 221.732 57.9995 224.724 59.9995 227.051L60.3328 227.384C62.3328 229.378 65.9995 229.378 67.9995 227.384C69.9995 225.057 70.3328 221.732 67.9995 219.738Z" fill="white"/>
<path d="M295 458.092C295 458.092 205.333 478.703 169.333 443.133L182.333 357.365C186.333 332.765 184 285.228 202.666 268.606C206.333 265.282 210 263.619 210 263.619C223.333 257.303 247 253.646 269.666 253.646C297.333 253.646 325.666 274.257 332.666 300.852L303 370.33L295 458.092Z" fill="#48EEF9"/>
<path d="M286.333 311.489C286.333 311.489 326.333 388.613 306.666 392.602C241 406.232 203 417.202 203 417.202L199.667 442.467C200.667 446.456 332.333 443.132 347.667 425.513C358.667 413.213 373.333 384.292 342.333 322.127L333 300.851L286.333 311.489Z" fill="#F6AEA6"/>
<path d="M211 271.597L111 310.159L108 257.968L86.6663 249.657C86.6663 249.657 55.6663 333.43 94.333 349.054C133 364.678 176.666 335.757 176.666 335.757L211 271.597Z" fill="#F6AEA6"/>
<path d="M223.334 258.964C188.334 269.935 167.667 282.899 118.667 303.51L144 359.691L187.334 345.729L223.334 258.964Z" fill="#48EEF9"/>
<path d="M280.334 300.851L305.667 359.359L362.667 349.054L324.334 282.9L278.667 300.851" fill="#48EEF9"/>
<path d="M250.333 340.744C262.666 340.079 274.666 340.744 286.666 340.744C287.666 340.744 287.666 339.414 286.666 339.081C274.666 337.752 262.333 338.084 250.333 339.414C249.333 339.414 249.333 340.744 250.333 340.744Z" fill="#3546AB"/>
<path d="M304.999 272.594C263.999 276.251 291.999 336.754 302.666 355.037C303.333 356.035 304.666 355.037 304.333 354.04C293.999 335.424 265.666 279.243 305.333 273.592C305.666 273.592 305.333 272.594 304.999 272.594Z" fill="#3546AB"/>
<path d="M191 307.168C186 327.446 182.666 348.389 181.333 369C181.333 369.997 182.666 369.997 183 369.332C186 348.722 189 328.111 192.333 307.5C192 306.835 191 306.503 191 307.168Z" fill="#3546AB"/>
<path d="M287.333 195.471C288 186.828 288.666 178.184 289.333 169.541C296 167.546 299.666 158.903 297 152.255C294.333 145.606 286.666 141.949 279.666 142.946C284 139.955 283.666 132.641 280 128.984C276.333 124.995 270.666 123.665 265.333 123.665C260 123.333 254.666 123.998 249.333 123C244.666 122.003 240 120.009 235.333 120.673C230.666 121.338 226 126.657 228.666 130.646C222 129.649 214.666 128.652 208.333 131.976C202.333 135.3 199.333 144.609 204.333 148.93C201 150.592 200 155.579 202 158.903C204 162.228 208 163.89 211.666 164.222C215.666 164.555 219.333 163.557 223 162.56" fill="#251A51"/>
<path d="M286 178.849L284.666 196.8C284.666 196.8 300 198.794 295.666 212.757C291.333 226.719 280.666 220.735 280.666 220.735C280.666 220.735 278 256.638 241.333 245.003C212 236.027 214 198.13 217.666 165.884C219 153.251 231 144.94 243.333 147.267L265.333 151.589C278.333 154.249 287 165.884 286 178.849Z" fill="#F6AEA6"/>
<path d="M284.667 211.76L274.667 264.284C272.334 276.252 260.667 283.898 249 280.906C238 278.246 231 267.608 233 256.638L238.334 226.387L284.667 211.76Z" fill="#F6AEA6"/>
<path d="M244 212.092C244 212.092 244.334 212.757 243 213.422C242 214.087 240 212.757 239.667 211.095C239 209.433 239 207.438 239.334 205.111C239.334 202.784 239.667 200.457 239.667 198.13C240.334 188.157 241.334 180.179 241.667 180.179C242 180.179 242 188.157 241.334 198.13C241 200.457 241 202.784 240.667 205.111C240.334 207.106 240.334 209.1 240.667 210.762C241 212.092 242 213.09 242.667 212.757C243.667 212.757 244 212.092 244 212.092Z" fill="#251A51"/>
<path d="M231.999 241.346C231.999 241.014 233.999 242.343 236.999 243.673C239.999 245.003 244.332 246.333 249.332 246.665C254.332 246.665 258.999 245.668 261.999 244.338C264.999 243.008 266.999 242.011 266.999 242.343C266.999 242.343 265.666 244.006 262.332 245.668C259.332 247.33 254.666 248.66 249.332 248.66C243.999 248.66 239.332 246.997 236.332 245.335C233.666 243.008 231.999 241.346 231.999 241.346Z" fill="#251A51"/>
<path d="M239.333 219.738C239.667 219.406 240.333 220.403 242 221.068C243.667 221.733 246 222.397 248.333 221.4C250.667 220.735 252.333 218.741 253 217.411C254 216.081 254 214.751 254.333 214.751C254.667 214.751 254.667 216.081 254 217.743C253.333 219.406 251.667 222.065 248.667 222.73C245.667 223.727 243 222.73 241.333 221.733C239.667 220.735 239 219.738 239.333 219.738Z" fill="#251A51"/>
<path d="M286 214.42C286 214.087 287 214.087 288 213.422C288.666 213.09 288.999 212.757 288.999 212.092C288.999 211.428 288.999 210.763 288.333 210.763C287.999 210.763 287.666 210.763 287.333 210.763L286 210.098C287.333 207.106 288.666 205.444 288.999 205.444C289.333 205.444 288.666 207.771 287.666 210.763L286.333 210.098C287 209.101 288.333 208.768 289.333 209.101C289.999 209.433 290.666 210.098 290.999 210.763C291.333 211.428 290.999 212.092 290.999 212.757C290.666 213.755 289.666 214.42 288.999 214.752C286.666 215.084 286 214.752 286 214.42Z" fill="#251A51"/>
<path d="M257.667 178.849C257.334 178.517 259.334 177.52 261.667 178.185C264 178.849 265.334 180.512 265 180.844C264.667 181.176 263.334 180.179 261.334 179.847C259.334 179.514 257.667 179.514 257.667 178.849Z" fill="#251A51"/>
<path d="M225.667 173.863C225.333 173.53 227.333 172.2 230 172.533C232.667 172.865 234.333 174.195 234 174.527C233.667 174.86 232 174.195 229.667 174.195C227.667 174.195 226 174.527 225.667 173.863Z" fill="#251A51"/>
<path d="M284.666 196.8C274.333 186.827 271.333 170.206 268.666 156.244C259.333 163.225 245.999 164.887 234.999 160.565C231.666 164.554 227.666 168.211 222.999 170.871C221.666 171.536 220.333 172.533 218.666 172.2C216.999 171.536 216.333 169.873 215.666 167.879C214.333 162.227 214.333 156.244 216.333 150.925C218.333 145.606 222.333 140.952 227.666 138.625C233.333 136.298 239.999 137.295 245.666 138.957C254.666 141.284 263.333 144.941 271.333 149.595C279.333 154.249 286.666 160.233 289.999 168.544C293.333 176.854 293.333 193.476 285.333 197.798" fill="#251A51"/>
<path d="M260.333 193.809C260 193.809 259.667 192.479 259.667 191.149C259.667 189.487 260.333 188.49 260.666 188.49C261 188.49 261.333 189.819 261.333 191.149C261.333 192.479 260.666 193.809 260.333 193.809Z" fill="#251A51"/>
<path d="M230.999 189.819C230.666 189.819 230.333 188.489 230.333 187.159C230.333 185.497 230.999 184.5 231.333 184.5C231.666 184.5 231.999 185.83 231.999 187.159C231.666 188.822 231.333 189.819 230.999 189.819Z" fill="#251A51"/>
<path d="M85.3325 251.652C85.3325 251.652 89.6659 224.392 94.9992 224.725C100.333 225.057 110.999 224.725 110.999 224.725C110.999 224.725 111.999 198.795 114.666 203.117C117.666 207.106 118.666 242.011 107.333 258.633L85.3325 251.652Z" fill="#F6AEA6"/>
<path d="M202.999 417.203C202.999 417.203 155.332 425.513 156.332 431.497C157.332 437.813 160.666 443.797 160.666 443.797L202.999 442.8V417.203Z" fill="#F6AEA6"/>
<path d="M254.666 445.46L254.333 438.811L156.333 432.828L123.333 345.398L15.9995 351.382L52.6662 445.793L254.666 445.46Z" fill="#E8E4EF"/>
<path opacity="0.41" d="M75.3325 392.935C75.6659 397.257 79.3325 400.581 83.6659 400.581C87.9992 400.249 91.3325 396.592 91.3325 392.27C90.9992 387.949 87.3325 384.625 82.9992 384.625C78.3325 384.957 74.9992 388.614 75.3325 392.935Z" fill="white"/>
<path opacity="0.41" d="M71.9992 393.269C72.3325 399.252 77.6659 404.239 83.6659 403.906C89.6659 403.574 94.6659 398.255 94.3325 392.271C93.9992 386.287 88.6659 381.301 82.6659 381.633C76.3325 381.633 71.6659 386.952 71.9992 393.269Z" fill="#3546AB"/>
<path d="M0 447.454L420.333 442.135L445 455.1C445 455.1 122.333 543.527 0 447.454Z" fill="#636FBC"/>
<path d="M328.666 137.295C327.333 139.622 331.666 203.449 331.666 203.449L363 200.789L359.333 217.743L374.666 200.457L405.333 196.8L403.333 134.968L328.666 137.295Z" fill="#E8E4EF"/>
<path d="M249 38.2302C249 38.2302 227.333 39.2275 226.667 62.4978C226.667 62.4978 227 75.1302 234 79.7843C241 84.4383 240.333 89.4248 240.333 89.4248H258.333C258.333 89.4248 257.666 83.1086 260.333 79.4519C263.333 75.7951 270.333 68.1491 269.333 57.1789C268.333 45.8762 260 37.2329 249 38.2302Z" fill="#FFBB7D"/>
<path d="M240 95.0759C246.333 94.7435 253 95.4083 259.333 95.0759C260.333 95.0759 260.666 93.4137 259.666 93.4137C253.333 92.084 246.333 92.7489 240 93.4137C239 93.4137 239 95.0759 240 95.0759Z" fill="white"/>
<path d="M242.334 100.728C245.001 100.728 247.667 100.395 250.001 100.395C252.667 100.395 255.334 100.728 257.667 100.728C258.667 100.728 259.001 99.398 258.001 99.0656C253.001 97.7358 247.001 98.4007 242.001 99.0656C241.334 99.0656 241.667 100.728 242.334 100.728Z" fill="white"/>
<path d="M244.666 104.716C247 104.716 249.333 105.381 251.666 105.381C252.666 105.381 253 103.719 252 103.387C249.666 102.722 247 103.054 245 103.054C243.666 103.387 243.666 104.716 244.666 104.716Z" fill="white"/>
<path d="M245.666 89.0923C246.333 82.776 244 75.4625 243 69.4788C242.333 69.8112 241.666 70.1436 241 70.1436C242 71.4733 243.333 75.795 245.666 75.795C247.999 75.795 249 71.4733 249.333 69.4788C248.666 69.4788 247.999 69.4788 247.333 69.4788C247.666 71.4733 248 76.1274 251 75.795C253.666 75.4625 255.333 71.4733 256.333 69.4788C255.666 69.1463 255 69.1463 254.333 68.8139C252.666 75.1301 251.999 83.1085 253.666 89.4247C253.999 90.422 255.666 90.422 255.666 89.0923C255.333 82.4436 254.666 76.1274 256.666 69.4788C256.999 68.149 255 67.4842 254.666 68.8139C254.333 69.4788 252.666 73.8004 251 73.1355C250.666 73.1355 250 69.1463 250 68.8139C249.666 67.8166 248 67.8166 248 68.8139C247.666 70.1436 247.333 73.4679 245.666 72.4706C244.666 71.8058 244 69.8112 243.333 68.8139C242.666 67.8166 241.333 68.4815 241.333 69.4788C242.333 75.795 242.666 83.1085 245 89.0923C245 89.7571 245.666 89.4247 245.666 89.0923Z" fill="white"/>
<path d="M182 81.1139C191.667 78.122 201.667 75.4626 211 71.8058C211.667 71.4734 211.333 70.4761 210.667 70.4761C201 72.8031 191.333 76.4598 181.667 79.4517C180.667 79.7842 181 81.4463 182 81.1139Z" fill="#FFBB7D"/>
<path d="M193.667 52.5236C199.667 52.5236 206 52.8561 212 51.8588C213 51.8588 213 50.1966 212 50.1966C206 49.8642 199.667 50.529 193.667 50.529C192.667 50.8615 192.667 52.5236 193.667 52.5236Z" fill="#FFBB7D"/>
<path d="M222.666 41.8872C216 35.9035 209.333 28.5899 201.666 23.9359C200.333 23.271 199.333 24.9332 200.333 25.9305C206.333 32.5791 214.666 37.5656 221.666 43.217C222.333 43.8818 223.666 42.8845 222.666 41.8872Z" fill="#FFBB7D"/>
<path d="M238 32.9107C238 30.9162 236.666 29.254 235.666 27.5918C234.666 25.5972 233.666 23.6026 232 21.9405C231.333 21.2756 229.666 21.9405 230 22.9378C230.666 24.9324 232.333 26.927 233.333 28.5891C234.333 30.2513 235.333 32.2459 237 33.2432C237.666 33.2432 238 33.2432 238 32.9107Z" fill="#FFBB7D"/>
<path d="M252.666 28.9216C253 19.9459 253.333 10.3054 252 0.997297C252 -0.332432 250 -0.332432 250 0.997297C249.333 10.3054 250 19.9459 250.666 28.9216C250.666 30.2514 252.666 30.2514 252.666 28.9216Z" fill="#FFBB7D"/>
<path d="M263.334 33.243C265.667 29.9187 268 26.5944 269.667 22.6052C270.334 21.2755 268.667 20.2782 267.667 21.6079C265.334 24.9322 263.667 28.589 261.667 32.2457C261.334 33.5755 262.667 34.2403 263.334 33.243Z" fill="#FFBB7D"/>
<path d="M271.666 41.222C276.333 39.2274 280.666 36.9004 285 34.5734C289 31.9139 294 29.9193 297.666 26.595C298.333 25.9301 297.666 24.6004 296.666 24.9328C292.333 26.2626 288.333 29.2545 284.333 31.5815C279.666 34.241 275.333 36.568 271 39.5599C270.333 40.2247 270.666 41.5545 271.666 41.222Z" fill="#FFBB7D"/>
<path d="M277.667 52.8568C281.001 54.1865 287.001 53.1892 289.334 50.5297C290.334 49.5325 289.334 48.5352 288.334 48.5352C286.667 48.8676 285.001 49.8649 283.001 50.1973C281.334 50.5297 279.334 50.5297 277.667 50.8622C276.667 51.527 277.001 52.8568 277.667 52.8568Z" fill="#FFBB7D"/>
<path d="M279 69.4776C292 72.8019 305.333 76.4587 318.666 78.1209C320.333 78.4533 320.333 75.7938 319 75.4614C306.333 71.8047 292.666 69.8101 279.666 67.483C278.333 67.1506 277.666 69.1452 279 69.4776Z" fill="#FFBB7D"/>
<path d="M95.6668 295.201C96.0001 292.209 96.0001 289.549 97.6668 287.222C101 282.236 105.333 283.566 109.667 285.56C114 287.887 118.333 289.217 123.333 286.89C131 283.566 134.333 272.263 127.333 266.944C125 265.282 122.667 267.941 123 270.268C123.333 273.26 125 276.584 122.333 279.244C118.667 282.901 114.667 279.909 111 278.247C107.333 276.584 103 276.252 99.3334 277.582C92.6668 280.241 87.6668 289.549 93.0001 295.533C93.6668 296.863 95.3334 296.198 95.6668 295.201Z" fill="#FB2B76"/>
<path d="M195.333 300.518C204.333 298.191 213.999 294.867 222.333 290.878C225.333 289.548 223.333 284.894 220.333 285.891C211.333 288.551 202.666 292.54 194.333 296.862C192.666 298.191 192.999 301.183 195.333 300.518Z" fill="#3546AB"/>
<path d="M346 165.884L352.666 188.822L361.999 187.16L361 182.506L363.666 180.843L368.666 185.83L384.333 182.838L386.333 176.854L382 175.857L387.666 173.862L386.333 167.546L381.333 167.879L388 165.884L386.333 157.906L370.333 160.898C370.333 160.898 371.333 149.927 366.666 146.271L363 146.935C363 146.935 364.333 150.26 363.999 152.587C363.999 154.581 360.666 164.554 360.666 164.554L355.666 166.881L354.666 163.557L346 165.884Z" fill="#A4AAD7"/>
<path d="M22 123L27.3333 186.495H144.667L151 208.768L158 184.168L180.333 182.838L170 125.992L22 123Z" fill="#FB2B76"/>
<path d="M37.3335 146.27C77.6668 144.608 118 144.608 158.334 148.265C159.667 148.265 159.667 146.27 158.334 145.938C118 142.946 77.6668 141.616 37.3335 144.275C36.3335 144.608 36.3335 146.602 37.3335 146.27Z" fill="white"/>
<path d="M39.6675 158.902C80.0008 157.24 120.334 157.24 160.667 160.896C162.001 160.896 162.001 158.902 160.667 158.569C120.334 155.578 80.0008 154.248 39.6675 156.907C38.6675 156.907 38.6675 158.902 39.6675 158.902Z" fill="white"/>
<path d="M40.0005 169.54C67.0005 170.538 94.0005 168.543 121 170.87C122.334 170.87 122.334 168.876 121 168.543C94.0005 166.549 67.0005 167.878 40.0005 167.546C38.6672 167.546 38.6672 169.208 40.0005 169.54Z" fill="white"/>
</g>
<defs>
<clipPath id="clip0">
<rect width="445" height="492" fill="white"/>
</clipPath>
</defs>
</svg>
