<svg width="122" height="40" viewBox="0 0 122 40" fill="none" xmlns="http://www.w3.org/2000/svg">
<path d="M50.27 26.67H57.17V30H46.07V9.06H50.27V26.67ZM65.7195 30.27C64.1195 30.27 62.6795 29.92 61.3995 29.22C60.1195 28.5 59.1095 27.49 58.3695 26.19C57.6495 24.89 57.2895 23.39 57.2895 21.69C57.2895 19.99 57.6595 18.49 58.3995 17.19C59.1595 15.89 60.1895 14.89 61.4895 14.19C62.7895 13.47 64.2395 13.11 65.8395 13.11C67.4395 13.11 68.8895 13.47 70.1895 14.19C71.4895 14.89 72.5095 15.89 73.2495 17.19C74.0095 18.49 74.3895 19.99 74.3895 21.69C74.3895 23.39 73.9995 24.89 73.2195 26.19C72.4595 27.49 71.4195 28.5 70.0995 29.22C68.7995 29.92 67.3395 30.27 65.7195 30.27ZM65.7195 26.61C66.4795 26.61 67.1895 26.43 67.8495 26.07C68.5295 25.69 69.0695 25.13 69.4695 24.39C69.8695 23.65 70.0695 22.75 70.0695 21.69C70.0695 20.11 69.6495 18.9 68.8095 18.06C67.9895 17.2 66.9795 16.77 65.7795 16.77C64.5795 16.77 63.5695 17.2 62.7495 18.06C61.9495 18.9 61.5495 20.11 61.5495 21.69C61.5495 23.27 61.9395 24.49 62.7195 25.35C63.5195 26.19 64.5195 26.61 65.7195 26.61ZM82.4804 13.11C83.7204 13.11 84.8104 13.36 85.7504 13.86C86.6904 14.34 87.4304 14.97 87.9704 15.75V13.38H92.2004V30.12C92.2004 31.66 91.8904 33.03 91.2704 34.23C90.6504 35.45 89.7204 36.41 88.4804 37.11C87.2404 37.83 85.7404 38.19 83.9804 38.19C81.6204 38.19 79.6804 37.64 78.1604 36.54C76.6604 35.44 75.8104 33.94 75.6104 32.04H79.7804C80.0004 32.8 80.4704 33.4 81.1904 33.84C81.9304 34.3 82.8204 34.53 83.8604 34.53C85.0804 34.53 86.0704 34.16 86.8304 33.42C87.5904 32.7 87.9704 31.6 87.9704 30.12V27.54C87.4304 28.32 86.6804 28.97 85.7204 29.49C84.7804 30.01 83.7004 30.27 82.4804 30.27C81.0804 30.27 79.8004 29.91 78.6404 29.19C77.4804 28.47 76.5604 27.46 75.8804 26.16C75.2204 24.84 74.8904 23.33 74.8904 21.63C74.8904 19.95 75.2204 18.46 75.8804 17.16C76.5604 15.86 77.4704 14.86 78.6104 14.16C79.7704 13.46 81.0604 13.11 82.4804 13.11ZM87.9704 21.69C87.9704 20.67 87.7704 19.8 87.3704 19.08C86.9704 18.34 86.4304 17.78 85.7504 17.4C85.0704 17 84.3404 16.8 83.5604 16.8C82.7804 16.8 82.0604 16.99 81.4004 17.37C80.7404 17.75 80.2004 18.31 79.7804 19.05C79.3804 19.77 79.1804 20.63 79.1804 21.63C79.1804 22.63 79.3804 23.51 79.7804 24.27C80.2004 25.01 80.7404 25.58 81.4004 25.98C82.0804 26.38 82.8004 26.58 83.5604 26.58C84.3404 26.58 85.0704 26.39 85.7504 26.01C86.4304 25.61 86.9704 25.05 87.3704 24.33C87.7704 23.59 87.9704 22.71 87.9704 21.69ZM102.182 30.27C100.582 30.27 99.1424 29.92 97.8624 29.22C96.5824 28.5 95.5724 27.49 94.8324 26.19C94.1124 24.89 93.7524 23.39 93.7524 21.69C93.7524 19.99 94.1224 18.49 94.8624 17.19C95.6224 15.89 96.6524 14.89 97.9524 14.19C99.2524 13.47 100.702 13.11 102.302 13.11C103.902 13.11 105.352 13.47 106.652 14.19C107.952 14.89 108.972 15.89 109.712 17.19C110.472 18.49 110.852 19.99 110.852 21.69C110.852 23.39 110.462 24.89 109.682 26.19C108.922 27.49 107.882 28.5 106.562 29.22C105.262 29.92 103.802 30.27 102.182 30.27ZM102.182 26.61C102.942 26.61 103.652 26.43 104.312 26.07C104.992 25.69 105.532 25.13 105.932 24.39C106.332 23.65 106.532 22.75 106.532 21.69C106.532 20.11 106.112 18.9 105.272 18.06C104.452 17.2 103.442 16.77 102.242 16.77C101.042 16.77 100.032 17.2 99.2124 18.06C98.4124 18.9 98.0124 20.11 98.0124 21.69C98.0124 23.27 98.4024 24.49 99.1824 25.35C99.9824 26.19 100.982 26.61 102.182 26.61Z" fill="white"/>
<path d="M114.293 30.21C113.533 30.21 112.903 29.98 112.403 29.52C111.923 29.04 111.683 28.45 111.683 27.75C111.683 27.05 111.923 26.47 112.403 26.01C112.903 25.53 113.533 25.29 114.293 25.29C115.033 25.29 115.643 25.53 116.123 26.01C116.603 26.47 116.843 27.05 116.843 27.75C116.843 28.45 116.603 29.04 116.123 29.52C115.643 29.98 115.033 30.21 114.293 30.21Z" fill="#8253FB"/>
<path d="M16.6489 6.7082C18.0508 5.68963 19.9492 5.68963 21.3511 6.7082L30.9147 13.6565C32.3167 14.6751 32.9033 16.4806 32.3678 18.1287L28.7148 29.3713C28.1793 31.0194 26.6435 32.1353 24.9106 32.1353H13.0894C11.3565 32.1353 9.82066 31.0194 9.28516 29.3713L5.63221 18.1287C5.09671 16.4806 5.68334 14.6751 7.08529 13.6565L16.6489 6.7082Z" fill="#53AFEE"/>
</svg>
