<svg width="25" height="17" viewBox="0 0 25 17" fill="none" xmlns="http://www.w3.org/2000/svg">
<g opacity="0.01">
<rect y="0.972656" width="24.2332" height="16.0276" fill="white"/>
</g>
<rect x="8.92139" y="3.76465" width="6.39259" height="10.441" fill="#FF5F00"/>
<path d="M9.58001 8.98657C9.57841 6.94947 10.5136 5.02475 12.116 3.767C9.39369 1.62754 5.48431 1.93917 3.1353 4.48289C0.786281 7.02661 0.786281 10.9484 3.1353 13.4921C5.48431 16.0358 9.39369 16.3475 12.116 14.208C10.513 12.9498 9.57784 11.0243 9.58001 8.98657Z" fill="#EB001B"/>
<path fill-rule="evenodd" clip-rule="evenodd" d="M22.2249 12.887V13.101H22.1843V12.887H22.0977V12.8428H22.3171V12.887H22.2249ZM22.651 12.843V13.1012H22.6049V12.9057L22.533 13.0735H22.4832L22.4112 12.9057V13.1012H22.3633V12.843H22.4297L22.5071 13.0274L22.5846 12.843H22.651Z" fill="#F79E1B"/>
<path d="M22.8592 8.98621C22.8591 11.5284 21.4076 13.8474 19.121 14.9583C16.8344 16.0692 14.1142 15.777 12.1157 14.2058C13.7175 12.947 14.6527 11.0225 14.6527 8.98529C14.6527 6.94807 13.7175 5.02361 12.1157 3.76479C14.1142 2.19359 16.8344 1.9014 19.121 3.01231C21.4076 4.12322 22.8591 6.4422 22.8592 8.98436V8.98621Z" fill="#F79E1B"/>
</svg>
