<svg width="61" height="61" viewBox="0 0 61 61" fill="none" xmlns="http://www.w3.org/2000/svg">
<path fill-rule="evenodd" clip-rule="evenodd" d="M48.3044 8.12988H13.203C10.445 8.12988 8.18848 10.3864 8.18848 13.1444V48.2458C8.18848 51.0038 10.445 53.2603 13.203 53.2603H48.3044C51.0624 53.2603 53.3189 51.0038 53.3189 48.2458V13.1444C53.3189 10.3864 51.0624 8.12988 48.3044 8.12988Z" fill="#FC3400"/>
<path fill-rule="evenodd" clip-rule="evenodd" d="M15.6201 32.571V37.6156H13.2031V23.1738H19.1704C19.3108 23.1738 19.4913 23.1788 19.7119 23.1889C19.9326 23.1989 20.1365 23.2206 20.3237 23.2541C21.1595 23.3811 21.8498 23.6586 22.3947 24.0865C22.9396 24.5144 23.3441 25.0543 23.6082 25.7061C23.8723 26.358 24.0043 27.0818 24.0043 27.8774C24.0043 28.6664 23.8706 29.3868 23.6032 30.0387C23.3357 30.6906 22.9296 31.2304 22.3847 31.6584C21.8398 32.0863 21.1528 32.3637 20.3237 32.4908C20.1365 32.5175 19.9309 32.5376 19.7069 32.5509C19.5576 32.5598 19.4283 32.5658 19.3191 32.5688L15.6201 32.571ZM15.6199 30.3144H19.0699C19.2036 30.3144 19.354 30.3077 19.5212 30.2943C19.6883 30.281 19.8421 30.2542 19.9825 30.2141C20.3837 30.1138 20.6996 29.9366 20.9302 29.6826C21.1609 29.4285 21.3247 29.141 21.4217 28.8201C21.5186 28.4991 21.5671 28.1849 21.5671 27.8773C21.5671 27.5698 21.5186 27.2539 21.4217 26.9296C21.3247 26.6053 21.1609 26.3162 20.9302 26.0621C20.6996 25.808 20.3837 25.6309 19.9825 25.5306C19.8421 25.4905 19.6883 25.4654 19.5212 25.4553C19.354 25.4453 19.2036 25.4403 19.0699 25.4403H15.6199V30.3144ZM30.7261 37.6149C30.8615 37.6137 31.0646 37.6106 31.3354 37.6055C31.6964 37.5989 32.0408 37.5755 32.3684 37.5353C33.5117 37.3882 34.4795 36.9821 35.2718 36.3168C36.064 35.6516 36.6641 34.8041 37.072 33.7745C37.4798 32.7448 37.6837 31.6182 37.6837 30.3947C37.6837 29.1712 37.4798 28.0446 37.072 27.0149C36.6641 25.9853 36.064 25.1378 35.2718 24.4726C34.4795 23.8073 33.5117 23.4012 32.3684 23.2541C32.0341 23.2139 31.6881 23.1905 31.3304 23.1839C30.9727 23.1772 30.7336 23.1738 30.6133 23.1738H26.01V37.6156L30.7261 37.6149ZM42.4779 31.5982V37.6156H40.0609V23.1738H48.7561V25.5908H42.4779V29.1912H47.5526V31.5982H42.4779Z" fill="white"/>
<path d="M30.832 35.3365L28.4668 35.3388V25.4502H30.613C30.8136 25.4502 31.0693 25.4552 31.3802 25.4652C31.6911 25.4753 31.9669 25.507 32.2076 25.5605C32.8762 25.6875 33.4261 25.9851 33.8574 26.4531C34.2886 26.9211 34.6079 27.4995 34.8151 28.1881C35.0224 28.8768 35.126 29.6122 35.126 30.3945C35.126 31.15 35.0241 31.8721 34.8202 32.5607C34.6162 33.2494 34.3003 33.8344 33.8724 34.3158C33.4445 34.7972 32.8896 35.1014 32.2076 35.2285C31.9669 35.2753 31.6911 35.3053 31.3802 35.3187C31.0693 35.3321 30.8136 35.3388 30.613 35.3388L30.832 35.3365Z" fill="#FC3400"/>
</svg>
