<svg width="24" height="25" viewBox="0 0 24 25" fill="none" xmlns="http://www.w3.org/2000/svg">
<g id="Iconly/Light-Outline/Bookmark">
<g id="Bookmark">
<g id="Group 3">
<mask id="mask0_79_3077" style="mask-type:alpha" maskUnits="userSpaceOnUse" x="3" y="2" width="18" height="22">
<path id="Clip 2" fill-rule="evenodd" clip-rule="evenodd" d="M3 2.5H20.0388V23.3467H3V2.5Z" fill="white"/>
</mask>
<g mask="url(#mask0_79_3077)">
<path id="Fill 1" fill-rule="evenodd" clip-rule="evenodd" d="M8.34176 4C5.79276 4 4.49976 4.982 4.49976 6.921V21.645C4.49976 21.739 4.55376 21.79 4.59876 21.816C4.64376 21.844 4.71476 21.864 4.79676 21.818L11.1788 18.238C11.4068 18.111 11.6858 18.11 11.9148 18.239L18.2418 21.813C18.3248 21.861 18.3958 21.839 18.4408 21.812C18.4858 21.785 18.5388 21.734 18.5388 21.64V7.104C18.5388 6.337 18.5388 4 14.7008 4H8.34176ZM4.69876 23.347C4.40376 23.347 4.10876 23.268 3.84076 23.11C3.31376 22.803 2.99976 22.254 2.99976 21.645V6.921C2.99976 4.111 4.94676 2.5 8.34176 2.5H14.7008C18.0928 2.5 20.0388 4.179 20.0388 7.104V21.64C20.0388 22.25 19.7248 22.799 19.1968 23.106C18.6708 23.414 18.0368 23.42 17.5048 23.12L11.5448 19.753L5.52976 23.127C5.26976 23.273 4.98476 23.347 4.69876 23.347Z" fill="#808191"/>
</g>
</g>
<path id="Fill 4" fill-rule="evenodd" clip-rule="evenodd" d="M15.1397 10.7285H7.82166C7.40766 10.7285 7.07166 10.3925 7.07166 9.97852C7.07166 9.56452 7.40766 9.22852 7.82166 9.22852H15.1397C15.5537 9.22852 15.8897 9.56452 15.8897 9.97852C15.8897 10.3925 15.5537 10.7285 15.1397 10.7285Z" fill="#808191"/>
</g>
</g>
</svg>
