<svg width="24" height="25" viewBox="0 0 24 25" fill="none" xmlns="http://www.w3.org/2000/svg">
<g id="Iconly/Light-Outline/Setting">
<g id="Setting">
<g id="Group 3">
<mask id="mask0_79_3093" style="mask-type:alpha" maskUnits="userSpaceOnUse" x="2" y="2" width="20" height="22">
<path id="Clip 2" fill-rule="evenodd" clip-rule="evenodd" d="M2 2.50098H21.2849V23.222H2V2.50098Z" fill="white"/>
</mask>
<g mask="url(#mask0_79_3093)">
<path id="Fill 1" fill-rule="evenodd" clip-rule="evenodd" d="M7.2022 17.941C7.4312 17.941 7.6602 17.97 7.8842 18.03C8.5602 18.212 9.1472 18.664 9.4952 19.271C9.7212 19.652 9.8462 20.097 9.8502 20.551C9.8502 21.201 10.3722 21.722 11.0142 21.722H12.2672C12.9062 21.722 13.4282 21.204 13.4312 20.565C13.4272 19.859 13.7032 19.188 14.2082 18.683C14.7062 18.185 15.4022 17.886 16.0982 17.906C16.5542 17.917 16.9932 18.04 17.3802 18.26C17.9372 18.579 18.6482 18.389 18.9702 17.839L19.6342 16.732C19.7822 16.477 19.8252 16.157 19.7462 15.862C19.6682 15.567 19.4722 15.311 19.2082 15.16C18.5902 14.804 18.1492 14.23 17.9662 13.542C17.7852 12.867 17.8842 12.13 18.2372 11.523C18.4672 11.123 18.8042 10.786 19.2082 10.554C19.7502 10.237 19.9402 9.52798 19.6252 8.97598C19.6122 8.95398 19.6002 8.93098 19.5902 8.90698L19.0042 7.89098C18.6852 7.33598 17.9752 7.14498 17.4182 7.46198C16.8162 7.81798 16.1002 7.91998 15.4122 7.73898C14.7252 7.56098 14.1492 7.12598 13.7902 6.51198C13.5602 6.12798 13.4352 5.68098 13.4312 5.22598C13.4402 4.88398 13.3202 4.57698 13.1022 4.35198C12.8852 4.12798 12.5802 4.00098 12.2672 4.00098H11.0142C10.7042 4.00098 10.4142 4.12198 10.1952 4.33998C9.9772 4.55898 9.8582 4.84998 9.8602 5.15998C9.8392 6.62198 8.6442 7.79898 7.1972 7.79898C6.7332 7.79398 6.2862 7.66898 5.8982 7.43698C5.3532 7.12698 4.6412 7.31798 4.3222 7.87298L3.6452 8.98598C3.3352 9.52398 3.5252 10.235 4.0772 10.556C4.8962 11.03 5.4072 11.914 5.4072 12.862C5.4072 13.81 4.8962 14.693 4.0752 15.168C3.5262 15.486 3.3362 16.193 3.6542 16.743L4.2852 17.831C4.4412 18.112 4.6962 18.315 4.9912 18.398C5.2852 18.48 5.6092 18.445 5.8792 18.295C6.2762 18.062 6.7382 17.941 7.2022 17.941ZM12.2672 23.222H11.0142C9.5452 23.222 8.3502 22.028 8.3502 20.559C8.3482 20.378 8.2962 20.19 8.1992 20.027C8.0422 19.753 7.7882 19.557 7.4952 19.479C7.2042 19.401 6.8852 19.444 6.6232 19.596C5.9952 19.946 5.2562 20.031 4.5802 19.841C3.9052 19.65 3.3222 19.186 2.9802 18.571L2.3552 17.494C1.6242 16.226 2.0592 14.601 3.3252 13.869C3.6842 13.662 3.9072 13.276 3.9072 12.862C3.9072 12.448 3.6842 12.061 3.3252 11.854C2.0582 11.118 1.6242 9.48898 2.3542 8.22098L3.0322 7.10798C3.7532 5.85398 5.3832 5.41198 6.6542 6.14198C6.8272 6.24498 7.0152 6.29698 7.2062 6.29898C7.8292 6.29898 8.3502 5.78498 8.3602 5.15298C8.3562 4.45598 8.6312 3.78698 9.1322 3.28198C9.6352 2.77798 10.3032 2.50098 11.0142 2.50098H12.2672C12.9832 2.50098 13.6792 2.79498 14.1782 3.30598C14.6762 3.81998 14.9512 4.52498 14.9302 5.23998C14.9322 5.40098 14.9852 5.58698 15.0812 5.74998C15.2402 6.01998 15.4912 6.20998 15.7892 6.28798C16.0872 6.36198 16.3992 6.32198 16.6642 6.16498C17.9442 5.43398 19.5732 5.87198 20.3042 7.14198L20.9272 8.22098C20.9432 8.24998 20.9572 8.27798 20.9692 8.30698C21.6312 9.55798 21.1892 11.133 19.9592 11.852C19.7802 11.955 19.6352 12.099 19.5352 12.273C19.3802 12.542 19.3372 12.862 19.4152 13.156C19.4952 13.456 19.6862 13.705 19.9552 13.859C20.5622 14.208 21.0152 14.796 21.1962 15.475C21.3772 16.153 21.2782 16.889 20.9252 17.496L20.2612 18.602C19.5302 19.858 17.9012 20.293 16.6342 19.561C16.4652 19.464 16.2702 19.411 16.0762 19.406H16.0702C15.7812 19.406 15.4842 19.529 15.2682 19.744C15.0492 19.963 14.9292 20.255 14.9312 20.565C14.9242 22.034 13.7292 23.222 12.2672 23.222Z" fill="#808191"/>
</g>
</g>
<path id="Fill 4" fill-rule="evenodd" clip-rule="evenodd" d="M11.645 10.9746C10.605 10.9746 9.75903 11.8216 9.75903 12.8616C9.75903 13.9016 10.605 14.7466 11.645 14.7466C12.685 14.7466 13.531 13.9016 13.531 12.8616C13.531 11.8216 12.685 10.9746 11.645 10.9746ZM11.645 16.2466C9.77803 16.2466 8.25903 14.7286 8.25903 12.8616C8.25903 10.9946 9.77803 9.47461 11.645 9.47461C13.512 9.47461 15.031 10.9946 15.031 12.8616C15.031 14.7286 13.512 16.2466 11.645 16.2466Z" fill="#808191"/>
</g>
</g>
</svg>
