<svg width="24" height="25" viewBox="0 0 24 25" fill="none" xmlns="http://www.w3.org/2000/svg">
<g id="Iconly/Light-Outline/Document">
<g id="Document">
<path id="Fill 1" fill-rule="evenodd" clip-rule="evenodd" d="M15.7158 17.4736H8.49585C8.08185 17.4736 7.74585 17.1376 7.74585 16.7236C7.74585 16.3096 8.08185 15.9736 8.49585 15.9736H15.7158C16.1298 15.9736 16.4658 16.3096 16.4658 16.7236C16.4658 17.1376 16.1298 17.4736 15.7158 17.4736Z" fill="#808191"/>
<path id="Fill 3" fill-rule="evenodd" clip-rule="evenodd" d="M15.7158 13.2871H8.49585C8.08185 13.2871 7.74585 12.9511 7.74585 12.5371C7.74585 12.1231 8.08185 11.7871 8.49585 11.7871H15.7158C16.1298 11.7871 16.4658 12.1231 16.4658 12.5371C16.4658 12.9511 16.1298 13.2871 15.7158 13.2871Z" fill="#808191"/>
<path id="Fill 5" fill-rule="evenodd" clip-rule="evenodd" d="M11.2505 9.11035H8.49548C8.08148 9.11035 7.74548 8.77435 7.74548 8.36035C7.74548 7.94635 8.08148 7.61035 8.49548 7.61035H11.2505C11.6645 7.61035 12.0005 7.94635 12.0005 8.36035C12.0005 8.77435 11.6645 9.11035 11.2505 9.11035Z" fill="#808191"/>
<g id="Group 9">
<mask id="mask0_79_3070" style="mask-type:alpha" maskUnits="userSpaceOnUse" x="3" y="2" width="19" height="21">
<path id="Clip 8" fill-rule="evenodd" clip-rule="evenodd" d="M3 2.5H21.1647V22.4098H3V2.5Z" fill="white"/>
</mask>
<g mask="url(#mask0_79_3070)">
<path id="Fill 7" fill-rule="evenodd" clip-rule="evenodd" d="M15.9088 4L8.21976 4.004C5.89176 4.018 4.49976 5.458 4.49976 7.857V17.053C4.49976 19.468 5.90476 20.91 8.25576 20.91L15.9448 20.907C18.2728 20.893 19.6648 19.451 19.6648 17.053V7.857C19.6648 5.442 18.2608 4 15.9088 4ZM8.25676 22.41C5.11276 22.41 2.99976 20.257 2.99976 17.053V7.857C2.99976 4.624 5.04676 2.523 8.21476 2.504L15.9078 2.5H15.9088C19.0528 2.5 21.1648 4.653 21.1648 7.857V17.053C21.1648 20.285 19.1178 22.387 15.9498 22.407L8.25676 22.41Z" fill="#808191"/>
</g>
</g>
</g>
</g>
</svg>
