<svg width="24" height="25" viewBox="0 0 24 25" fill="none" xmlns="http://www.w3.org/2000/svg">
<g id="Iconly/Light-Outline/Notification">
<g id="Notification">
<g id="Group 3">
<mask id="mask0_79_3725" style="mask-type:alpha" maskUnits="userSpaceOnUse" x="3" y="1" width="19" height="18">
<path id="Clip 2" fill-rule="evenodd" clip-rule="evenodd" d="M3.00012 1.5H21.497V18.848H3.00012V1.5Z" fill="white"/>
</mask>
<g mask="url(#mask0_79_3725)">
<path id="Fill 1" fill-rule="evenodd" clip-rule="evenodd" d="M12.2471 3C8.75214 3 6.31614 5.738 6.31614 8.195C6.31614 10.274 5.73914 11.235 5.22914 12.083C4.82014 12.764 4.49714 13.302 4.49714 14.471C4.66414 16.357 5.90914 17.348 12.2471 17.348C18.5501 17.348 19.8341 16.313 20.0001 14.406C19.9971 13.302 19.6741 12.764 19.2651 12.083C18.7551 11.235 18.1781 10.274 18.1781 8.195C18.1781 5.738 15.7421 3 12.2471 3ZM12.2471 18.848C7.57114 18.848 3.34514 18.518 3.00014 14.535C2.99714 12.887 3.50014 12.049 3.94414 11.311C4.39314 10.563 4.81614 9.858 4.81614 8.195C4.81614 4.962 7.80213 1.5 12.2471 1.5C16.6921 1.5 19.6781 4.962 19.6781 8.195C19.6781 9.858 20.1011 10.563 20.5501 11.311C20.9941 12.049 21.4971 12.887 21.4971 14.471C21.1481 18.518 16.9231 18.848 12.2471 18.848Z" fill="#808191"/>
</g>
</g>
<path id="Fill 4" fill-rule="evenodd" clip-rule="evenodd" d="M12.1983 22.9996H12.1963C11.0753 22.9986 10.0143 22.5046 9.20927 21.6076C8.93227 21.3006 8.95727 20.8256 9.26527 20.5496C9.57327 20.2716 10.0473 20.2966 10.3243 20.6056C10.8423 21.1826 11.5073 21.4996 12.1973 21.4996H12.1983C12.8913 21.4996 13.5593 21.1826 14.0783 20.6046C14.3563 20.2976 14.8303 20.2726 15.1373 20.5496C15.4453 20.8266 15.4703 21.3016 15.1933 21.6086C14.3853 22.5056 13.3223 22.9996 12.1983 22.9996Z" fill="#808191"/>
</g>
</g>
</svg>
