<svg width="24" height="24" viewBox="0 0 24 24" fill="none" xmlns="http://www.w3.org/2000/svg">
<path d="M9.16994 7.0003C8.98369 7.18766 8.87915 7.44111 8.87915 7.7053C8.87915 7.96948 8.98369 8.22293 9.16994 8.4103L12.7099 12.0003L9.16994 15.5403C8.98369 15.7277 8.87915 15.9811 8.87915 16.2453C8.87915 16.5095 8.98369 16.7629 9.16994 16.9503C9.26291 17.044 9.37351 17.1184 9.49537 17.1692C9.61723 17.22 9.74793 17.2461 9.87994 17.2461C10.012 17.2461 10.1427 17.22 10.2645 17.1692C10.3864 17.1184 10.497 17.044 10.5899 16.9503L14.8299 12.7103C14.9237 12.6173 14.9981 12.5067 15.0488 12.3849C15.0996 12.263 15.1257 12.1323 15.1257 12.0003C15.1257 11.8683 15.0996 11.7376 15.0488 11.6157C14.9981 11.4939 14.9237 11.3833 14.8299 11.2903L10.5899 7.0003C10.497 6.90657 10.3864 6.83217 10.2645 6.7814C10.1427 6.73064 10.012 6.7045 9.87994 6.7045C9.74793 6.7045 9.61722 6.73064 9.49537 6.7814C9.37351 6.83217 9.26291 6.90657 9.16994 7.0003Z" fill="#53AFEE"/>
</svg>
