<svg width="32" height="32" viewBox="0 0 32 32" fill="none" xmlns="http://www.w3.org/2000/svg">
<rect opacity="0.05" width="32" height="32" rx="16" fill="#8F92A1"/>
<path fill-rule="evenodd" clip-rule="evenodd" d="M11.3335 18.8334C11.6096 18.8334 11.8335 19.0573 11.8335 19.3334V20.6668C11.8335 20.7588 11.9081 20.8334 12.0002 20.8334H20.0002C20.0922 20.8334 20.1668 20.7588 20.1668 20.6668V19.3334C20.1668 19.0573 20.3907 18.8334 20.6668 18.8334C20.943 18.8334 21.1668 19.0573 21.1668 19.3334V20.6668C21.1668 21.3111 20.6445 21.8334 20.0002 21.8334H12.0002C11.3558 21.8334 10.8335 21.3111 10.8335 20.6668V19.3334C10.8335 19.0573 11.0574 18.8334 11.3335 18.8334Z" fill="#808191"/>
<path fill-rule="evenodd" clip-rule="evenodd" d="M15.1587 18.7516C14.8158 18.7516 14.5297 18.4895 14.4998 18.1479C14.3974 16.9794 14.3793 15.8052 14.4457 14.6344C14.281 14.6253 14.1164 14.6147 13.9519 14.6027L12.9589 14.5304C12.576 14.5024 12.362 14.0755 12.5687 13.7521C13.2767 12.644 14.1891 11.6807 15.257 10.9136L15.6549 10.6278C15.8612 10.4795 16.1391 10.4795 16.3454 10.6278L16.7433 10.9136C17.8113 11.6807 18.7236 12.644 19.4316 13.7521C19.6383 14.0755 19.4243 14.5024 19.0414 14.5304L18.0484 14.6027C17.8839 14.6147 17.7193 14.6253 17.5546 14.6344C17.621 15.8052 17.6029 16.9794 17.5005 18.1479C17.4706 18.4895 17.1845 18.7516 16.8416 18.7516H15.1587Z" fill="#808191"/>
</svg>
