<svg width="17" height="17" viewBox="0 0 17 17" fill="none" xmlns="http://www.w3.org/2000/svg">
<path d="M9.03564 4.42871V11.4287H7.03564V4.42871H4.03564L8.03564 0.428711L12.0356 4.42871H9.03564Z" fill="white"/>
<path d="M15.0357 16.4287H1.03569C0.748687 16.4287 0.475687 16.3057 0.285687 16.0907C0.0956874 15.8757 0.00768737 15.5897 0.0426874 15.3047L1.04269 7.30471C1.10569 6.80371 1.53169 6.42871 2.03569 6.42871H5.03569V8.42871H2.91869L2.16869 14.4287H13.9027L13.1527 8.42871H11.0357V6.42871H14.0357C14.5397 6.42871 14.9657 6.80371 15.0277 7.30471L16.0277 15.3047C16.0637 15.5897 15.9747 15.8757 15.7847 16.0907C15.5957 16.3057 15.3227 16.4287 15.0357 16.4287Z" fill="white"/>
</svg>
