<svg width="20" height="20" viewBox="0 0 20 20" fill="none" xmlns="http://www.w3.org/2000/svg">
<rect opacity="0.2" width="20" height="20" rx="10" fill="#8253FB"/>
<path d="M9.99992 6.5625C9.13697 6.5625 8.43742 7.26206 8.43742 8.125C8.43742 8.98794 9.13697 9.6875 9.99992 9.6875C10.8629 9.6875 11.5624 8.98794 11.5624 8.125C11.5624 7.26206 10.8629 6.5625 9.99992 6.5625Z" fill="#8253FB"/>
<path d="M8.33325 10.5208C7.47031 10.5208 6.77075 11.2204 6.77075 12.0833V12.5785C6.77075 12.8923 6.9982 13.1599 7.30795 13.2105C9.09079 13.5015 10.909 13.5015 12.6919 13.2105C13.0016 13.1599 13.2291 12.8923 13.2291 12.5785V12.0833C13.2291 11.2204 12.5295 10.5208 11.6666 10.5208H11.5246C11.4477 10.5208 11.3713 10.533 11.2982 10.5568L10.9376 10.6746C10.3283 10.8736 9.67153 10.8736 9.06225 10.6746L8.70162 10.5568C8.62854 10.533 8.55215 10.5208 8.47528 10.5208H8.33325Z" fill="#8253FB"/>
</svg>
